<?xml version="1.0" encoding="iso-8859-1"?>
<!-- Generator: Adobe Illustrator 16.0.0, SVG Export Plug-In . SVG Version: 6.00 Build 0)  -->
<!DOCTYPE svg PUBLIC "-//W3C//DTD SVG 1.1//EN" "http://www.w3.org/Graphics/SVG/1.1/DTD/svg11.dtd">
<svg version="1.1" id="Capa_1" xmlns="http://www.w3.org/2000/svg" xmlns:xlink="http://www.w3.org/1999/xlink" x="0px" y="0px"
	 width="95.209px" height="95.209px" viewBox="0 0 95.209 95.209" style="enable-background:new 0 0 95.209 95.209;"
	 xml:space="preserve">
<g>
	<g>
		<path d="M28.392,47.569c0-1.342-1.036-2.447-2.328-2.447l-1.396,0.006v4.899l1.36-0.006C27.32,50.021,28.392,48.929,28.392,47.569
			z"/>
		<path d="M53.458,45.087l-1.206-0.006v1.945h1.206c0.538,0,0.972-0.434,0.972-0.966C54.43,45.521,53.996,45.087,53.458,45.087z"/>
		<path d="M85.365,40.273C81.932,22.559,66.307,9.141,47.604,9.141c-18.703,0-34.328,13.418-37.761,31.133H0v14.662h9.844
			c3.432,17.715,19.057,31.133,37.76,31.133c18.703,0,34.328-13.418,37.761-31.133h9.844V40.273H85.365z M47.604,22.47
			c11.311,0,20.898,7.509,24.044,17.804H23.56C26.706,29.979,36.293,22.47,47.604,22.47z M64.632,47.594
			c0,2.251-1.739,4.074-3.891,4.074c-2.149,0-3.89-1.823-3.89-4.074c0-2.245,1.739-4.075,3.89-4.075
			C62.893,43.519,64.632,45.349,64.632,47.594z M56.805,51.508h-1.521l-2.207-3.108h-0.842v3.108h-1.408v-7.804h2.632
			c1.296,0,2.351,1.06,2.351,2.357c0,0.909-0.514,1.665-1.271,2.059L56.805,51.508z M42.861,51.508H41.34l-2.207-3.108h-0.842v3.108
			h-1.408v-7.804h2.631c1.297,0,2.352,1.06,2.352,2.357c0,0.909-0.514,1.665-1.271,2.059L42.861,51.508z M42.824,47.434
			c0-3.935,3.874-4.575,6.63-3.352v1.532c-2.976-1.532-5.248-0.157-5.248,1.758c0,2.144,1.655,3.58,3.94,2.655v-1.729h-1.258v-1.346
			h2.661v3.715C47.051,52.834,42.824,51.369,42.824,47.434z M34.781,46.603v1.504h-2.504v1.824h3.328v1.565h-4.731v-7.808h4.63
			v1.544h-3.227v1.37H34.781z M10.109,51.778c-1.869,0-3.351-1.651-3.351-3.608v-4.48h1.403l0.006,4.631
			c0.037,1.154,0.891,2.078,1.941,2.094c1.084,0,1.959-0.959,1.959-2.094v-4.631h1.398l0.006,4.502
			C13.472,50.246,11.978,51.778,10.109,51.778z M21.751,51.498h-1.403l-4.03-5.249v5.249h-1.409v-7.809h1.409l4.03,5.35v-5.35h1.403
			V51.498z M23.249,43.691h2.864c2.06,0,3.67,1.728,3.67,3.878c0,2.167-1.651,3.92-3.707,3.92l-2.827,0.007V43.691z M47.604,72.739
			c-11.311,0-20.898-7.509-24.044-17.804h48.088C68.502,65.23,58.915,72.739,47.604,72.739z M69.083,51.778
			c-1.869,0-3.351-1.651-3.351-3.608v-4.48h1.402l0.006,4.631c0.037,1.154,0.892,2.078,1.941,2.094c1.084,0,1.959-0.959,1.959-2.094
			v-4.631h1.398l0.004,4.502C72.445,50.246,70.953,51.778,69.083,51.778z M80.984,51.498h-1.402l-4.031-5.249v5.249h-1.408v-7.809
			h1.408l4.031,5.35v-5.35h1.402V51.498z M85.576,51.489l-2.828,0.007v-7.805h2.863c2.061,0,3.67,1.728,3.67,3.878
			C89.281,49.736,87.63,51.489,85.576,51.489z"/>
		<path d="M58.303,47.594c0,1.408,1.092,2.548,2.438,2.548c1.354,0,2.446-1.14,2.446-2.548c0-1.403-1.094-2.536-2.446-2.536
			C59.395,45.058,58.303,46.19,58.303,47.594z"/>
		<path d="M39.513,45.087l-1.205-0.006v1.945h1.205c0.539,0,0.973-0.434,0.973-0.966C40.486,45.521,40.052,45.087,39.513,45.087z"/>
		<path d="M85.564,45.124l-1.396,0.006v4.899l1.359-0.006c1.291,0,2.363-1.093,2.363-2.452
			C87.891,46.229,86.855,45.124,85.564,45.124z"/>
	</g>
</g>
<g>
</g>
<g>
</g>
<g>
</g>
<g>
</g>
<g>
</g>
<g>
</g>
<g>
</g>
<g>
</g>
<g>
</g>
<g>
</g>
<g>
</g>
<g>
</g>
<g>
</g>
<g>
</g>
<g>
</g>
</svg>
